<?xml version="1.0" standalone="no"?><!DOCTYPE svg PUBLIC "-//W3C//DTD SVG 1.1//EN" "http://www.w3.org/Graphics/SVG/1.1/DTD/svg11.dtd"><svg t="1686107895801" class="icon" viewBox="0 0 1024 1024" version="1.1" xmlns="http://www.w3.org/2000/svg" p-id="2006" xmlns:xlink="http://www.w3.org/1999/xlink" width="200" height="200"><path d="M430.08 71.68c130.06848 0 235.52 105.45152 235.52 235.52 0 84.82816-44.8512 159.19104-112.14848 200.66304C679.40352 560.2304 768 684.48256 768 829.44v10.24a112.64 112.64 0 0 1-112.64 112.64H184.32A112.64 112.64 0 0 1 71.68 839.68v-10.24c0-149.79072 94.57664-277.46304 227.28704-326.59456A235.19232 235.19232 0 0 1 194.56 307.2C194.56 177.13152 300.01152 71.68 430.08 71.68z m-10.24 471.04c-158.35136 0-286.72 128.36864-286.72 286.72v10.24A51.2 51.2 0 0 0 184.32 890.88h471.04a51.2 51.2 0 0 0 51.2-51.2v-10.24c0-158.35136-128.36864-286.72-286.72-286.72zM731.136 156.22144c8.86784 3.8912 17.42848 8.3968 25.6 13.43488 57.5488 35.49184 93.184 95.68256 93.184 161.77152 0 60.14976-29.4912 114.688-76.63616 150.44608 106.86464 53.18656 179.03616 170.02496 179.03616 302.592a98.89792 98.89792 0 0 1-94.37184 98.87744l-4.4032 0.1024h-15.64672a30.72 30.72 0 0 1-2.9696-61.29664l2.9696-0.14336h15.64672c20.60288 0 37.33504-16.7936 37.33504-37.53984 0-131.72736-85.6064-243.24096-200.86784-266.9568a30.72 30.72 0 0 1-23.90016-36.27008l0.2048-1.00352a30.72 30.72 0 0 1 21.38112-22.97856c59.904-17.6128 100.78208-68.44416 100.78208-125.82912 0-44.15488-24.10496-84.86912-63.97952-109.4656a149.8112 149.8112 0 0 0-18.14528-9.54368 30.72 30.72 0 1 1 24.7808-56.19712zM430.08 133.12a174.08 174.08 0 1 0 0 348.16 174.08 174.08 0 0 0 0-348.16z" fill="#ffffff" p-id="2007"></path></svg>