<?xml version="1.0" standalone="no"?><!DOCTYPE svg PUBLIC "-//W3C//DTD SVG 1.1//EN" "http://www.w3.org/Graphics/SVG/1.1/DTD/svg11.dtd"><svg t="1686107901699" class="icon" viewBox="0 0 1024 1024" version="1.1" xmlns="http://www.w3.org/2000/svg" p-id="2145" xmlns:xlink="http://www.w3.org/1999/xlink" width="200" height="200"><path d="M409.6 71.68c130.06848 0 235.52 105.45152 235.52 235.52 0 81.408-41.28768 153.14944-104.07936 195.46112a347.56608 347.56608 0 0 1 137.4208 92.672c3.13344 3.44064 5.3248 7.39328 6.61504 11.5712a30.72 30.72 0 0 1-51.67104 31.232A285.85984 285.85984 0 0 0 420.29056 542.72a285.85984 285.85984 0 0 0-213.0944 95.41632c-1.4336 1.57696-2.94912 2.9696-4.608 4.1984l-3.7888 4.46464a285.4912 285.4912 0 0 0-65.61792 176.2304L133.12 829.44V921.6a30.72 30.72 0 0 1-61.29664 2.94912L71.68 921.6v-92.16c0-144.95744 88.576-269.2096 214.56896-321.59744A235.27424 235.27424 0 0 1 174.08 307.2C174.08 177.13152 279.53152 71.68 409.6 71.68z m0 61.44a174.08 174.08 0 1 0 0 348.16 174.08 174.08 0 0 0 0-348.16zM776.3968 577.16736a40.96 40.96 0 0 1 56.85248-11.0592l101.86752 68.7104a40.96 40.96 0 0 1 11.0592 56.87296l-137.4208 203.73504-116.14208 52.14208a40.96 40.96 0 0 1-57.71264-38.66624l4.05504-128 137.4208-203.73504z m39.46496 51.34336l-116.08064 172.07296-2.4576 77.5168 70.2464-31.5392 116.20352-172.2368-67.91168-45.81376z" fill="#ffffff" p-id="2146"></path></svg>