<?xml version="1.0" standalone="no"?><!DOCTYPE svg PUBLIC "-//W3C//DTD SVG 1.1//EN" "http://www.w3.org/Graphics/SVG/1.1/DTD/svg11.dtd"><svg t="1686108168914" class="icon" viewBox="0 0 1024 1024" version="1.1" xmlns="http://www.w3.org/2000/svg" p-id="4136" xmlns:xlink="http://www.w3.org/1999/xlink" width="200" height="200"><path d="M927.035077 984.615385H96.886154A57.225846 57.225846 0 0 1 39.384615 927.704615v-20.164923a176.246154 176.246154 0 0 1 25.875693-94.523077 210.077538 210.077538 0 0 1 69.316923-69.55323A339.495385 339.495385 0 0 1 259.938462 698.683077h1.45723a636.416 636.416 0 0 0 64.748308-12.603077 238.198154 238.198154 0 0 0 37.572923-12.248615c0-3.938462-0.472615-9.452308-1.102769-16.384A181.169231 181.169231 0 0 0 304.049231 546.264615a354.107077 354.107077 0 0 1-26.308923-31.507692 215.709538 215.709538 0 0 1-37.572923-105.590154v-1.969231a76.484923 76.484923 0 0 1 15.36-47.655384 473.245538 473.245538 0 0 1 0-129.772308 176.128 176.128 0 0 1 58.722461-110.001231A70.301538 70.301538 0 0 1 315.076923 96.649846a67.977846 67.977846 0 0 1 52.027077-52.224 135.089231 135.089231 0 0 1 27.884308-3.662769c12.878769-0.669538 28.002462-1.378462 43.323077-1.378462 10.948923 0 20.952615 0.354462 30.562461 1.063385 180.932923 13.469538 248.123077 81.289846 255.212308 89.009231l0.866461 0.984615a187.628308 187.628308 0 0 1 38.281847 73.964308 177.230769 177.230769 0 0 1 4.844307 23.158154 441.698462 441.698462 0 0 1 3.938462 98.461538c-0.551385 10.200615-1.536 20.716308-3.072 32.334769a76.327385 76.327385 0 0 1 11.067077 21.661539 84.755692 84.755692 0 0 1 3.938461 26.348308v1.654153a214.291692 214.291692 0 0 1-37.612307 106.811077 355.84 355.84 0 0 1-26.466462 31.507693 181.169231 181.169231 0 0 0-58.525538 110.985846 317.164308 317.164308 0 0 0-1.10277 16.384 239.025231 239.025231 0 0 0 37.809231 12.327384 630.744615 630.744615 0 0 0 63.842462 12.406154l1.811692 0.275693A351.980308 351.980308 0 0 1 890.092308 744.369231a209.801846 209.801846 0 0 1 69.198769 69.435077A171.992615 171.992615 0 0 1 984.615385 907.894154v19.692308A57.225846 57.225846 0 0 1 927.035077 984.615385zM118.153846 905.846154h787.692308v-1.654154a93.538462 93.538462 0 0 0-14.020923-49.860923 131.977846 131.977846 0 0 0-43.716923-43.323077 273.880615 273.880615 0 0 0-97.437539-34.737231 703.251692 703.251692 0 0 1-72.034461-14.060307c-56.280615-14.375385-85.188923-31.507692-92.908308-54.665847a39.384615 39.384615 0 0 1-2.835692-8.861538 190.148923 190.148923 0 0 1 0-48.64 256 256 0 0 1 78.76923-156.790154 297.865846 297.865846 0 0 0 20.637539-24.260923 137.846154 137.846154 0 0 0 23.000615-63.763692v-0.945231c0-0.236308-1.575385-1.693538-2.363077-2.520615a58.761846 58.761846 0 0 1-3.938461-4.332308 44.268308 44.268308 0 0 1-9.452308-37.218462c2.244923-14.769231 3.623385-27.057231 4.253539-38.557538a365.331692 365.331692 0 0 0-3.465847-81.408q0-0.945231-0.275692-1.851077a99.564308 99.564308 0 0 0-2.875077-13.469539 108.780308 108.780308 0 0 0-21.228307-42.41723c-4.804923-4.568615-58.840615-52.932923-202.948924-63.645539a341.858462 341.858462 0 0 0-24.733538-0.866461c-13.508923 0-27.569231 0.669538-39.384615 1.260307h-2.717539a44.898462 44.898462 0 0 1-0.905846 23.63077 39.384615 39.384615 0 0 1-4.647385 10.082461 113.427692 113.427692 0 0 1-24.064 25.481846A96.886154 96.886154 0 0 0 334.060308 236.307692a39.384615 39.384615 0 0 1-0.512 4.804923 387.741538 387.741538 0 0 0 1.45723 117.444923 49.939692 49.939692 0 0 1-3.111384 32.059077 39.384615 39.384615 0 0 1-9.216 12.288l-3.938462 3.584a138.24 138.24 0 0 0 22.961231 62.700308 294.084923 294.084923 0 0 0 20.401231 23.985231l0.236308 0.236308a256 256 0 0 1 78.76923 156.790153 190.148923 190.148923 0 0 1 0 48.64 39.384615 39.384615 0 0 1-2.835692 8.861539c-7.876923 23.315692-36.470154 40.251077-92.593231 54.587077a708.923077 708.923077 0 0 1-73.176615 14.257231 261.592615 261.592615 0 0 0-95.783385 33.595076 132.214154 132.214154 0 0 0-43.795692 43.323077A98.067692 98.067692 0 0 0 118.153846 904.585846V905.846154z" fill="#cfcfcf" p-id="4137"></path></svg>