<?xml version="1.0" standalone="no"?>
<!DOCTYPE svg PUBLIC "-//W3C//DTD SVG 1.1//EN" "http://www.w3.org/Graphics/SVG/1.1/DTD/svg11.dtd">
<svg t="1685951245718" class="icon" viewBox="0 0 1024 1024" version="1.1" xmlns="http://www.w3.org/2000/svg" p-id="3315" xmlns:xlink="http://www.w3.org/1999/xlink" width="200" height="200">
<path d="M512 987.428571C249.417143 987.428571 36.571429 774.582857 36.571429 512S249.417143 36.571429 512 36.571429a473.965714 473.965714 0 0 1 336.188952 139.239619 36.571429 36.571429 0 1 1-51.736381 51.736381A400.822857 400.822857 0 0 0 512 109.714286C289.816381 109.714286 109.714286 289.816381 109.714286 512S289.816381 914.285714 512 914.285714 914.285714 734.183619 914.285714 512c0-63.536762-14.701714-124.879238-42.593524-180.345905a36.571429 36.571429 0 1 1 65.365334-32.841143A473.551238 473.551238 0 0 1 987.428571 512c0 262.582857-212.845714 475.428571-475.428571 475.428571z" fill="#ffffff" p-id="3316"></path>
<path d="M828.952381 487.619048a36.571429 36.571429 0 0 1 3.510857 72.97219L828.952381 560.761905h-109.738667l0.024381 109.714285a36.571429 36.571429 0 0 1-33.060571 36.400762L682.666667 707.047619h-109.738667l0.024381 109.714286a36.571429 36.571429 0 0 1-33.060571 36.400762L536.380952 853.333333h-146.285714a36.571429 36.571429 0 0 1-3.510857-72.97219L390.095238 780.190476h109.689905l0.024381-109.714286a36.571429 36.571429 0 0 1 33.060571-36.400761L536.380952 633.904762h109.689905l0.024381-109.714286a36.571429 36.571429 0 0 1 33.060572-36.400762L682.666667 487.619048h146.285714zM497.737143 256a36.571429 36.571429 0 0 1 3.510857 72.97219l-3.510857 0.170667h-134.119619l0.024381 231.619048a36.571429 36.571429 0 0 1-33.060572 36.400762l-3.510857 0.170666a36.571429 36.571429 0 0 1-36.400762-33.060571L290.499048 560.761905V292.571429a36.571429 36.571429 0 0 1 33.060571-36.400762l3.510857-0.170667h170.666667z" fill="#ffffff" p-id="3317"></path><path d="M473.35619 390.095238a36.571429 36.571429 0 0 1 3.510858 72.972191l-3.510858 0.170666h-146.285714a36.571429 36.571429 0 0 1-3.510857-72.97219l3.510857-0.170667h146.285714z" fill="#ffffff" p-id="3318"></path></svg>