<?xml version="1.0" standalone="no"?><!DOCTYPE svg PUBLIC "-//W3C//DTD SVG 1.1//EN" "http://www.w3.org/Graphics/SVG/1.1/DTD/svg11.dtd"><svg t="1684888578192" class="icon" fill='#cccccc' viewBox="0 0 1024 1024" version="1.1" xmlns="http://www.w3.org/2000/svg" p-id="1673" xmlns:xlink="http://www.w3.org/1999/xlink" width="200" height="200"><path d="M512 58.514286C261.485714 58.514286 58.514286 261.485714 58.514286 512c0 40.228571 5.485714 78.628571 14.628571 117.028571 3.657143 14.628571 18.285714 23.771429 32.914286 20.114286 14.628571-3.657143 23.771429-18.285714 20.114286-32.914286-9.142857-32.914286-12.8-67.657143-12.8-102.4C113.371429 292.571429 292.571429 113.371429 512 113.371429S910.628571 292.571429 910.628571 512 731.428571 910.628571 512 910.628571c-96.914286 0-190.171429-34.742857-263.314286-98.742857-10.971429-9.142857-29.257143-9.142857-38.4 1.828572s-9.142857 29.257143 1.828572 38.4c82.285714 73.142857 188.342857 113.371429 299.885714 113.371428 250.514286 0 453.485714-202.971429 453.485714-453.485714S762.514286 58.514286 512 58.514286z" p-id="1674"></path><path d="M153.6 689.371429c-7.314286-12.8-23.771429-18.285714-36.571429-12.8-12.8 7.314286-18.285714 23.771429-12.8 36.571428 12.8 27.428571 29.257143 53.028571 47.542858 76.8 5.485714 7.314286 12.8 10.971429 21.942857 10.971429 5.485714 0 10.971429-1.828571 16.457143-5.485715 12.8-9.142857 14.628571-25.6 5.485714-38.4-16.457143-21.942857-29.257143-43.885714-42.057143-67.657142zM349.257143 599.771429c-12.8 0-23.771429 10.971429-23.771429 23.771428s10.971429 23.771429 23.771429 23.771429h131.657143v96.914285c0 18.285714 14.628571 32.914286 32.914285 32.914286s32.914286-14.628571 32.914286-32.914286v-96.914285h131.657143c12.8 0 23.771429-10.971429 23.771429-23.771429s-10.971429-23.771429-23.771429-23.771428h-131.657143V530.285714h131.657143c12.8 0 23.771429-10.971429 23.771429-23.771428s-10.971429-23.771429-23.771429-23.771429h-106.057143l109.714286-192c5.485714-10.971429 1.828571-25.6-9.142857-31.085714-10.971429-5.485714-25.6-1.828571-31.085715 9.142857l-118.857142 208.457143c-1.828571 1.828571-1.828571 3.657143-1.828572 5.485714h-10.971428c0-1.828571-1.828571-3.657143-1.828572-5.485714l-118.857143-208.457143c-5.485714-10.971429-20.114286-14.628571-31.085714-9.142857-10.971429 5.485714-14.628571 20.114286-9.142857 31.085714l109.714286 192h-107.885715c-12.8 0-23.771429 10.971429-23.771428 23.771429s10.971429 23.771429 23.771428 23.771428h131.657143v69.485715h-133.485714z" p-id="1675" fill='#cccccc'></path></svg>