<?xml version="1.0" standalone="no"?><!DOCTYPE svg PUBLIC "-//W3C//DTD SVG 1.1//EN" "http://www.w3.org/Graphics/SVG/1.1/DTD/svg11.dtd"><svg t="1684460644019" class="icon" viewBox="0 0 1101 1024" version="1.1" xmlns="http://www.w3.org/2000/svg" p-id="2195" xmlns:xlink="http://www.w3.org/1999/xlink" width="215.0390625" height="200"><path d="M702.760375 381.019891h-107.016804a33.390578 33.390578 0 0 0 0 66.781157h200.343471a33.390578 33.390578 0 0 0 33.390578-33.390579v-199.564357a33.390578 33.390578 0 0 0-66.781157 0v135.454447C726.71255 256.116867 635.51175 189.235538 528.684159 189.235538 390.380383 189.235538 278.254821 301.361101 278.254821 439.664877h66.781156C345.035977 338.23543 427.254712 256.016695 528.684159 256.016695c80.916502 0 149.612052 52.334167 174.076216 125.003196zM355.776614 601.820656H478.598291a33.390578 33.390578 0 0 0 0-66.781157H278.254821a33.390578 33.390578 0 0 0-33.390579 33.390579V768.005565a33.390578 33.390578 0 0 0 66.781157 0v-103.143497C354.919589 739.812787 435.914002 790.265951 528.684159 790.265951 666.987935 790.265951 779.113498 678.140388 779.113498 539.836612h-66.781157C712.332341 641.266059 630.113606 723.484794 528.684159 723.484794c-79.66992 0-147.497315-50.731419-172.918676-121.653008zM66.781157 723.462533a33.390578 33.390578 0 0 0-66.781157 0v178.127606C0 969.194931 54.894111 1024 122.543423 1024h856.802243C1047.017239 1024 1101.889089 969.194931 1101.889089 901.590139V723.462533a33.390578 33.390578 0 0 0-66.781157 0v178.127606A55.706615 55.706615 0 0 1 979.345666 957.218843H122.543423A55.706615 55.706615 0 0 1 66.781157 901.590139V723.462533zM50.085868 300.537467a33.390578 33.390578 0 0 0 66.781157 0V122.39873c0-31.409404 21.904219-55.617574 47.125236-55.617573h773.904567c25.232147 0 47.125236 24.208169 47.125237 55.617573V300.537467a33.390578 33.390578 0 0 0 66.781157 0V122.39873c0-66.881329-50.21943-122.39873-113.906394-122.39873H163.992261C100.327558 0 50.085868 55.517402 50.085868 122.39873V300.537467z" fill="#ffffff" p-id="2196"></path></svg>