<?xml version="1.0" standalone="no"?><!DOCTYPE svg PUBLIC "-//W3C//DTD SVG 1.1//EN" "http://www.w3.org/Graphics/SVG/1.1/DTD/svg11.dtd"><svg t="1691029070061" class="icon" viewBox="0 0 1024 1024" version="1.1" xmlns="http://www.w3.org/2000/svg" p-id="2632" xmlns:xlink="http://www.w3.org/1999/xlink" width="200" height="200"><path d="M716.8 0H307.2C137.5488 0 0 137.5488 0 307.2v409.6c0 169.6512 137.5488 307.2 307.2 307.2h409.6c169.6512 0 307.2-137.5488 307.2-307.2V307.2c0-169.6512-137.5488-307.2-307.2-307.2z" fill="#E3F0FF" p-id="2633"></path><path d="M380.0576 435.2h263.8848-263.8848z m-16.384 25.6L281.6 588.8h460.8l-82.048-128h-296.704z" fill="#6CB0FF" p-id="2634"></path><path d="M277.76 614.4h468.48l69.1712 113.7152c10.7776 17.7152-2.7136 39.8848-24.2688 39.8848H232.8576c-21.5552 0-35.072-22.1696-24.2688-39.8848L277.7856 614.4z" fill="#0B77FF" p-id="2635"></path><path d="M484.9408 269.312c10.7776-17.7408 37.7344-17.7408 48.5376 0L634.4192 435.2H384l100.9408-165.888z" fill="#A9D1FF" p-id="2636"></path><path d="M460.8 716.8m12.8 0l204.8 0q12.8 0 12.8 12.8l0 0q0 12.8-12.8 12.8l-204.8 0q-12.8 0-12.8-12.8l0 0q0-12.8 12.8-12.8Z" fill="#FFFFFF" p-id="2637"></path><path d="M716.8 716.8m12.8 0l0 0q12.8 0 12.8 12.8l0 0q0 12.8-12.8 12.8l0 0q-12.8 0-12.8-12.8l0 0q0-12.8 12.8-12.8Z" fill="#FFFFFF" p-id="2638"></path></svg>