<svg xmlns="http://www.w3.org/2000/svg" viewBox="0 0 325.96 340.65"><defs><style>.cls-1{fill:#e05943;}</style></defs><g id="图层_2" data-name="图层 2"><g id="图层_1-2" data-name="图层 1"><path class="cls-1" d="M308.46,154,203.33,132.52c-6.44-2.14-12.87,0-17.17,2.15V29.54c2.15-4.29,2.15-10.73,0-17.17C181.87,1.64,169-2.65,158.27,1.64L12.37,66C1.64,70.3-2.65,83.18,1.64,93.9a22,22,0,0,0,12.88,10.73V308.46c0,17.17,15,32.19,32.18,32.19h236c17.16,0,32.18-15,32.18-32.19V194.75c4.29-2.15,8.58-8.59,10.73-12.88,2.14-12.87-6.44-23.6-17.17-27.89ZM164.71,308.46c0,6.44-4.29,10.73-10.73,10.73H121.8V254.82H78.89v64.37H46.7c-6.44,0-10.73-4.29-10.73-10.73V100.34L164.71,44.56ZM293.44,201.18V308.46c0,6.44-4.29,10.73-10.72,10.73H250.53V276.28H229.08v42.91H186.16v-148h2.15c2.15,2.14,4.29,2.14,6.44,2.14l100.84,21.46c-2.15,2.14-2.15,4.29-2.15,6.43Z"/><path class="cls-1" d="M229.08,233.37h21.45v21.45H229.08Zm0-42.91h21.45v21.45H229.08ZM78.89,211.91H121.8v21.46H78.89Zm0-42.91H121.8v21.46H78.89Zm0-42.91H121.8v21.45H78.89Z"/></g></g></svg>