<?xml version="1.0" standalone="no"?><!DOCTYPE svg PUBLIC "-//W3C//DTD SVG 1.1//EN" "http://www.w3.org/Graphics/SVG/1.1/DTD/svg11.dtd"><svg t="1687747878212" class="icon" viewBox="0 0 1024 1024" version="1.1" xmlns="http://www.w3.org/2000/svg" p-id="1729" xmlns:xlink="http://www.w3.org/1999/xlink" width="200" height="200"><path d="M256 68.693333a160 160 0 0 1 48.768 7.616l277.333333 88.746667A160 160 0 0 1 693.333333 317.44v146.922667l87.125334-55.424a96 96 0 0 1 129.856 25.472l2.666666 3.968a96 96 0 0 1 15.018667 51.541333V896h21.333333a32 32 0 0 1 0 64h-874.666666a32 32 0 0 1 0-64h21.333333V228.693333a160 160 0 0 1 154.816-159.914666z m0 64a96 96 0 0 0-96 96V896h469.333333V317.44a96 96 0 0 0-62.378666-89.92l-4.373334-1.514667-277.333333-88.746666A96 96 0 0 0 256 132.693333z m602.986667 340.053334a32 32 0 0 0-44.16-9.813334L693.333333 540.224V896h170.666667V489.92a32 32 0 0 0-3.221333-14.016zM288 533.333333a32 32 0 0 1 32 32v106.666667a32 32 0 0 1-64 0v-106.666667a32 32 0 0 1 32-32z m0-256a32 32 0 0 1 32 32v106.666667a32 32 0 0 1-64 0v-106.666667a32 32 0 0 1 32-32z" fill="#e05945" p-id="1730"></path></svg>