<?xml version="1.0" standalone="no"?><!DOCTYPE svg PUBLIC "-//W3C//DTD SVG 1.1//EN" "http://www.w3.org/Graphics/SVG/1.1/DTD/svg11.dtd"><svg t="1687760241148" class="icon" viewBox="0 0 1024 1024" version="1.1" xmlns="http://www.w3.org/2000/svg" p-id="8444" xmlns:xlink="http://www.w3.org/1999/xlink" width="200" height="200"><path d="M891.2 946.4c-9.6 0-17.6-8-17.6-17.6v-18.4H160.8v18.4c0 9.6-8 17.6-17.6 17.6h-12c-9.6 0-17.6-8-17.6-17.6v-18.4H64.8c-26.4 0-48-21.6-48-48V752l121.6-404.8c-0.8-2.4-0.8-5.6-0.8-8V132c0-26.4 21.6-48 48-48h651.2c26.4 0 48 21.6 48 48v206.4c0 2.4 0 5.6-0.8 8l121.6 404.8v110.4c0 26.4-21.6 48-48 48h-36.8v18.4c0 9.6-8 17.6-17.6 17.6h-12zM71.2 751.2c-3.2 0-6.4 3.2-6.4 6.4v97.6c0 4 3.2 6.4 6.4 6.4H952c3.2 0 6.4-3.2 6.4-6.4V758.4c0-4-3.2-6.4-6.4-6.4H71.2zM941.6 704l-100.8-317.6h-68c-10.4 35.2-42.4 60.8-80.8 60.8H632c-38.4 0-70.4-25.6-80.8-60.8h-80c-10.4 35.2-42.4 60.8-80.8 60.8h-60c-38.4 0-70.4-25.6-80.8-60.8h-68L80.8 704h860.8zM632 313.6c-20 0-36.8 16.8-36.8 36.8v12c0 20.8 16.8 36.8 36.8 36.8h60c20 0 36.8-16.8 36.8-36.8v-12c0-20.8-16.8-36.8-36.8-36.8H632z m-301.6 0c-20 0-36.8 16.8-36.8 36.8v12c0 20.8 16.8 36.8 36.8 36.8h60c20 0 36.8-16.8 36.8-36.8v-12c0-20.8-16.8-36.8-36.8-36.8h-60z m494.4 25.6c7.2 0 12.8-5.6 12.8-12.8V144c0-7.2-5.6-12.8-12.8-12.8H197.6c-7.2 0-12.8 5.6-12.8 12.8v182.4c0 7.2 5.6 12.8 12.8 12.8h49.6c5.6-40.8 40.8-72.8 83.2-72.8h60c42.4 0 77.6 32 83.2 72.8h75.2c5.6-40.8 40.8-72.8 83.2-72.8h60c42.4 0 77.6 32 83.2 72.8h49.6z" fill="#e05945" p-id="8445"></path></svg>