<?xml version="1.0" standalone="no"?><!DOCTYPE svg PUBLIC "-//W3C//DTD SVG 1.1//EN" "http://www.w3.org/Graphics/SVG/1.1/DTD/svg11.dtd"><svg t="1687760252437" class="icon" viewBox="0 0 1024 1024" version="1.1" xmlns="http://www.w3.org/2000/svg" p-id="10378" xmlns:xlink="http://www.w3.org/1999/xlink" width="200" height="200"><path d="M104.618667 350.421333l113.194666-239.701333c5.76-13.226667 24.106667-25.6 40.448-25.6h507.733334c16.64 0 36.48 12.885333 39.253333 22.4l114.133333 242.901333a21.333333 21.333333 0 0 0 38.570667-18.176l-112.938667-239.744c-7.210667-25.813333-44.373333-50.048-79.018666-50.048h-507.733334c-33.493333 0-67.072 22.613333-79.317333 50.602667L66.048 332.245333a21.333333 21.333333 0 0 0 38.570667 18.176z" p-id="10379" fill="#e05945"></path><path d="M490.666667 341.333333c0 33.066667-38.912 64-85.333334 64-56.405333 0-85.333333-25.557333-85.333333-64a21.333333 21.333333 0 0 0-42.666667 0c0 63.274667 49.066667 106.666667 128 106.666667 68.096 0 128-47.616 128-106.666667a21.333333 21.333333 0 1 0-42.666666 0z" p-id="10380" fill="#e05945"></path><path d="M704 341.333333c0 33.066667-38.912 64-85.333333 64-56.405333 0-85.333333-25.557333-85.333334-64a21.333333 21.333333 0 1 0-42.666666 0c0 63.274667 49.066667 106.666667 128 106.666667 68.096 0 128-47.616 128-106.666667a21.333333 21.333333 0 1 0-42.666667 0zM277.333333 341.333333c0 33.066667-38.912 64-85.333333 64-56.405333 0-85.333333-25.557333-85.333333-64a21.333333 21.333333 0 0 0-42.666667 0c0 63.274667 49.066667 106.666667 128 106.666667 68.096 0 128-47.616 128-106.666667a21.333333 21.333333 0 0 0-42.666667 0z" p-id="10381" fill="#e05945"></path><path d="M917.333333 341.333333c0 33.066667-38.912 64-85.333333 64-56.405333 0-85.333333-25.557333-85.333333-64a21.333333 21.333333 0 1 0-42.666667 0c0 63.274667 49.066667 106.666667 128 106.666667 68.096 0 128-47.616 128-106.666667a21.333333 21.333333 0 1 0-42.666667 0zM874.581333 576.768v341.418667a21.162667 21.162667 0 0 1-21.034666 21.248H170.325333a21.12 21.12 0 0 1-21.077333-21.248v-341.418667a21.333333 21.333333 0 1 0-42.666667 0v341.418667c0 35.285333 28.501333 63.914667 63.744 63.914666h683.221334c35.2 0 63.701333-28.629333 63.701333-63.914666v-341.418667a21.333333 21.333333 0 1 0-42.666667 0z" p-id="10382" fill="#e05945"></path><path d="M320 938.666667v-170.666667c0-11.861333 9.472-21.333333 21.333333-21.333333h128c11.861333 0 21.333333 9.472 21.333334 21.333333v170.666667a21.333333 21.333333 0 1 0 42.666666 0v-170.666667c0-35.456-28.586667-64-64-64H341.333333c-35.456 0-64 28.586667-64 64v170.666667a21.333333 21.333333 0 1 0 42.666667 0z" p-id="10383" fill="#e05945"></path></svg>