<?xml version="1.0" standalone="no"?><!DOCTYPE svg PUBLIC "-//W3C//DTD SVG 1.1//EN" "http://www.w3.org/Graphics/SVG/1.1/DTD/svg11.dtd"><svg t="1687747939248" class="icon" viewBox="0 0 1024 1024" version="1.1" xmlns="http://www.w3.org/2000/svg" p-id="4916" xmlns:xlink="http://www.w3.org/1999/xlink" width="200" height="200"><path d="M542.3104 101.444267a162.542933 162.542933 0 0 0-0.682667 324.949333 162.474667 162.474667 0 0 0 162.816-162.133333v-0.273067a162.474667 162.474667 0 0 0-162.133333-162.474667zM171.076267 954.5728a38.5024 38.5024 0 0 1-38.365867-38.5024v-2.116267a410.282667 410.282667 0 0 1 409.6-410.487466A239.4112 239.4112 0 1 1 541.218133 24.439467a239.547733 239.547733 0 0 1 240.0256 238.933333v0.6144a239.479467 239.479467 0 0 1-238.933333 239.479467 407.552 407.552 0 0 1 223.914667 66.696533 235.3152 235.3152 0 0 0-105.335467 32.1536 328.9088 328.9088 0 0 0-118.5792-21.845333 333.550933 333.550933 0 0 0-332.8 333.4144v2.116266a38.5024 38.5024 0 0 1-38.365867 38.570667h-0.068266z m610.167466 25.258667a38.5024 38.5024 0 0 1-38.5024-38.365867v-93.7984H649.147733a38.434133 38.434133 0 1 1 0-76.936533H742.741333V677.0688a38.5024 38.5024 0 1 1 77.0048 0v93.730133h93.730134a38.5024 38.5024 0 1 1 0 76.936534h-93.730134v93.730133a38.5024 38.5024 0 0 1-38.5024 38.365867z" fill="#e05945" p-id="4917"></path></svg>