<?xml version="1.0" standalone="no"?><!DOCTYPE svg PUBLIC "-//W3C//DTD SVG 1.1//EN" "http://www.w3.org/Graphics/SVG/1.1/DTD/svg11.dtd"><svg t="1691029013522" class="icon" viewBox="0 0 1024 1024" version="1.1" xmlns="http://www.w3.org/2000/svg" p-id="1884" xmlns:xlink="http://www.w3.org/1999/xlink" width="200" height="200"><path d="M716.8 0H307.2C137.5488 0 0 137.5488 0 307.2v409.6c0 169.6512 137.5488 307.2 307.2 307.2h409.6c169.6512 0 307.2-137.5488 307.2-307.2V307.2c0-169.6512-137.5488-307.2-307.2-307.2z" fill="#FFEBEB" p-id="1885"></path><path d="M358.4 256a51.2 51.2 0 0 0-51.2 51.2v409.6a51.2 51.2 0 0 0 51.2 51.2h307.2a51.2 51.2 0 0 0 51.2-51.2V409.6a153.6 153.6 0 0 0-153.6-153.6h-204.8z m256 230.4a102.4 102.4 0 0 1-198.5536 35.328l38.6304-39.7568 56.1152 50.432a13.824 13.824 0 0 0 18.432 2.9184 13.7728 13.7728 0 0 0 2.816-2.4064l0.384-0.4352 76.7488-79.0272c3.5328 10.3424 5.4272 21.4272 5.4272 32.9472z m-204.8 1.3824V486.4a102.4 102.4 0 0 1 186.112-59.008l-74.8288 77.0304-57.9584-52.1216a13.824 13.824 0 0 0-20.736 2.56L409.6 488.3968v-0.6144z" fill="#FE5570" p-id="1886"></path><path d="M575.068169 323.600526m15.077956-5.937237l-0.02382 0.00938q15.077956-5.937237 9.140719-21.015193l0.009379 0.02382q-5.937237-15.077956-21.015193-9.14072l0.02382-0.009379q-15.077956 5.937237-9.140719 21.015193l-0.009379-0.02382q5.937237 15.077956 21.015193 9.140719Z" fill="#FFFFFF" p-id="1887"></path><path d="M623.104 305.1776a12.0064 12.0064 0 0 0 3.0464 20.3776l9.472 3.8912a18.1504 18.1504 0 0 1 9.984 10.1376l8.192 20.736c2.2016 5.632 8.6784 8.2944 14.208 5.8112a10.4704 10.4704 0 0 0 5.632-13.0048c-11.5968-32.9216-21.6832-46.1312-41.3696-50.3808a10.9056 10.9056 0 0 0-9.1648 2.432z" fill="#FFFFFF" p-id="1888"></path><path d="M256 518.144c0-28.672 43.264-36.864 55.7312-11.008 96.6912 200.5248 205.568 237.312 419.712 148.736 17.1776-7.1168 36.5568 5.2224 36.5568 23.808V742.4a25.6 25.6 0 0 1-25.6 25.6H281.6a25.6 25.6 0 0 1-25.6-25.6v-224.256z" fill="#FFB7B9" p-id="1889"></path></svg>