<?xml version="1.0" standalone="no"?><!DOCTYPE svg PUBLIC "-//W3C//DTD SVG 1.1//EN" "http://www.w3.org/Graphics/SVG/1.1/DTD/svg11.dtd"><svg t="1691028999856" class="icon" viewBox="0 0 1024 1024" version="1.1" xmlns="http://www.w3.org/2000/svg" p-id="1733" xmlns:xlink="http://www.w3.org/1999/xlink" width="200" height="200"><path d="M716.8 0H307.2C137.5488 0 0 137.5488 0 307.2v409.6c0 169.6512 137.5488 307.2 307.2 307.2h409.6c169.6512 0 307.2-137.5488 307.2-307.2V307.2c0-169.6512-137.5488-307.2-307.2-307.2z" fill="#FFEFCF" p-id="1734"></path><path d="M563.2 588.8a25.6 25.6 0 0 1 25.6-25.6h102.4a25.6 25.6 0 0 1 25.6 25.6v155.8016c0 22.784-27.5712 34.2272-43.6992 18.0992l-15.0016-15.0016a25.6 25.6 0 0 0-36.1984 0l-15.0016 15.0016c-16.128 16.128-43.6992 4.7104-43.6992-18.0992V588.8z" fill="#FEBF60" p-id="1735"></path><path d="M281.6 281.6a25.6 25.6 0 0 1 25.6-25.6h384a25.6 25.6 0 0 1 25.6 25.6v256h-153.6a25.6 25.6 0 0 0-25.6 25.6v204.8h-230.4a25.6 25.6 0 0 1-25.6-25.6V281.6z m231.1936 12.8l-88.6784 153.6a25.6 25.6 0 0 0 22.1696 38.4h177.3568a25.6 25.6 0 0 0 22.1696-38.4l-88.6784-153.6a25.6 25.6 0 0 0-44.3392 0z m-54.6304 65.536l-13.3632-23.1168a25.6 25.6 0 0 0-44.3392 0L336.256 448a25.6 25.6 0 0 0 22.1952 38.4h71.0144a25.6 25.6 0 0 1-22.144-38.4l50.8416-88.064z" fill="#FA8A0C" p-id="1736"></path><path d="M307.2 588.8m12.8 0l102.4 0q12.8 0 12.8 12.8l0 0q0 12.8-12.8 12.8l-102.4 0q-12.8 0-12.8-12.8l0 0q0-12.8 12.8-12.8Z" fill="#FFFFFF" p-id="1737"></path><path d="M307.2 665.6m12.8 0l102.4 0q12.8 0 12.8 12.8l0 0q0 12.8-12.8 12.8l-102.4 0q-12.8 0-12.8-12.8l0 0q0-12.8 12.8-12.8Z" fill="#FFFFFF" p-id="1738"></path><path d="M460.8 588.8m12.8 0l0 0q12.8 0 12.8 12.8l0 0q0 12.8-12.8 12.8l0 0q-12.8 0-12.8-12.8l0 0q0-12.8 12.8-12.8Z" fill="#FFFFFF" p-id="1739"></path><path d="M460.8 665.6m12.8 0l0 0q12.8 0 12.8 12.8l0 0q0 12.8-12.8 12.8l0 0q-12.8 0-12.8-12.8l0 0q0-12.8 12.8-12.8Z" fill="#FFFFFF" p-id="1740"></path></svg>