<?xml version="1.0" standalone="no"?><!DOCTYPE svg PUBLIC "-//W3C//DTD SVG 1.1//EN" "http://www.w3.org/Graphics/SVG/1.1/DTD/svg11.dtd"><svg t="1691029018401" class="icon" viewBox="0 0 1024 1024" version="1.1" xmlns="http://www.w3.org/2000/svg" p-id="2033" xmlns:xlink="http://www.w3.org/1999/xlink" width="200" height="200"><path d="M716.8 0H307.2C137.5488 0 0 137.5488 0 307.2v409.6c0 169.6512 137.5488 307.2 307.2 307.2h409.6c169.6512 0 307.2-137.5488 307.2-307.2V307.2c0-169.6512-137.5488-307.2-307.2-307.2z" fill="#FFEFCF" p-id="2034"></path><path d="M704 768a115.2 115.2 0 1 0 0-230.4 115.2 115.2 0 0 0 0 230.4z m-61.44-192h29.7472l29.7728 74.3936 29.7472-74.3936h29.7728l-29.7728 74.3936h14.8992v14.8992h-29.7728v14.848h29.7728v14.8992h-29.7728v29.7728h-29.7472V695.04H657.408v-14.8736h29.7728v-14.8736H657.408v-14.8992h14.8736L642.56 576z" fill="#FEBF60" p-id="2035"></path><path d="M747.008 407.7568c10.6752 45.6704-40.6016 80.4608-79.104 53.6576l-18.0224-12.544a51.2 51.2 0 0 0-42.752-7.3728l-105.2672 28.7232a51.2 51.2 0 0 1-24.9856 0.4864l-131.712-30.4128a51.2 51.2 0 0 0-40.7808 7.8848l-19.0464 13.2608c-38.4768 26.8032-89.7536-7.936-79.104-53.632l26.1632-112.2304A51.2 51.2 0 0 1 282.24 256H670.976a51.2 51.2 0 0 1 49.8432 39.552l26.2144 112.2048z" fill="#FA8A0C" p-id="2036"></path><path d="M707.0464 495.36a50.048 50.048 0 0 1-39.1424-8.3456l-18.0224-12.544a51.2 51.2 0 0 0-42.752-7.3728l-105.2672 28.7232a51.2 51.2 0 0 1-24.9856 0.4864l-131.712-30.4128a51.2 51.2 0 0 0-40.7808 7.8848l-19.0464 13.2608a50.048 50.048 0 0 1-39.0912 8.3456V665.6a25.6 25.6 0 0 0 25.6 25.6h302.0032a128 128 0 0 1 133.1968-178.2272v-17.6128zM358.4 537.6a25.6 25.6 0 0 0-25.6 25.6v51.2a25.6 25.6 0 0 0 25.6 25.6h51.2a25.6 25.6 0 0 0 25.6-25.6v-51.2a25.6 25.6 0 0 0-25.6-25.6h-51.2z" fill="#FA8A0C" p-id="2037"></path><path d="M332.8 307.2m25.6 0l179.2 0q25.6 0 25.6 25.6l0 0q0 25.6-25.6 25.6l-179.2 0q-25.6 0-25.6-25.6l0 0q0-25.6 25.6-25.6Z" fill="#FFFFFF" p-id="2038"></path><path d="M588.8 307.2m25.6 0l0 0q25.6 0 25.6 25.6l0 0q0 25.6-25.6 25.6l0 0q-25.6 0-25.6-25.6l0 0q0-25.6 25.6-25.6Z" fill="#FFFFFF" p-id="2039"></path></svg>